<mxfile host="app.diagrams.net" modified="2021-07-12T03:14:32.935Z" agent="5.0 (Windows NT 10.0; Win64; x64) AppleWebKit/537.36 (KHTML, like Gecko) Chrome/90.0.4430.85 Safari/537.36" etag="PRSLzI_l0NK2ikSlnc1q" version="14.8.5" type="github">
  <diagram id="En5fsH0qPfYvG1PNKuJf" name="GST-全流程架构图(FE)">
    <mxGraphModel dx="4155" dy="3074" grid="1" gridSize="10" guides="1" tooltips="1" connect="1" arrows="1" fold="1" page="1" pageScale="1" pageWidth="827" pageHeight="1169" math="0" shadow="0">
      <root>
        <mxCell id="0" />
        <mxCell id="1" parent="0" />
        <mxCell id="nkBP9FhSrCLW1QHYpYpv-4" value="" style="group" vertex="1" connectable="0" parent="1">
          <mxGeometry x="20" y="-70" width="3260" height="1430" as="geometry" />
        </mxCell>
        <mxCell id="Kza3IiyWU27NG2U3xxo6-1" value="" style="rounded=0;whiteSpace=wrap;html=1;labelBackgroundColor=#FFFFFF;" parent="nkBP9FhSrCLW1QHYpYpv-4" vertex="1">
          <mxGeometry width="560" height="1430" as="geometry" />
        </mxCell>
        <mxCell id="Kza3IiyWU27NG2U3xxo6-2" value="项目结构" style="text;html=1;strokeColor=none;fillColor=none;align=center;verticalAlign=middle;whiteSpace=wrap;rounded=0;labelBackgroundColor=#FFFFFF;" parent="nkBP9FhSrCLW1QHYpYpv-4" vertex="1">
          <mxGeometry x="242.5" y="10" width="75" height="30" as="geometry" />
        </mxCell>
        <mxCell id="Kza3IiyWU27NG2U3xxo6-3" value="" style="rounded=0;whiteSpace=wrap;html=1;dashed=1;dashPattern=1 2;labelBackgroundColor=#FFFFFF;" parent="nkBP9FhSrCLW1QHYpYpv-4" vertex="1">
          <mxGeometry x="20" y="160" width="520" height="290" as="geometry" />
        </mxCell>
        <mxCell id="Kza3IiyWU27NG2U3xxo6-4" value="" style="group;labelBackgroundColor=#FFFFFF;" parent="nkBP9FhSrCLW1QHYpYpv-4" vertex="1" connectable="0">
          <mxGeometry x="36" y="180" width="499" height="250" as="geometry" />
        </mxCell>
        <mxCell id="Kza3IiyWU27NG2U3xxo6-5" value="" style="group;labelBackgroundColor=#FFFFFF;" parent="Kza3IiyWU27NG2U3xxo6-4" vertex="1" connectable="0">
          <mxGeometry width="390" height="250" as="geometry" />
        </mxCell>
        <mxCell id="Kza3IiyWU27NG2U3xxo6-6" value="统一登录(login)" style="rounded=0;whiteSpace=wrap;html=1;labelBackgroundColor=#FFFFFF;" parent="Kza3IiyWU27NG2U3xxo6-5" vertex="1">
          <mxGeometry width="390" height="60" as="geometry" />
        </mxCell>
        <mxCell id="Kza3IiyWU27NG2U3xxo6-7" value="" style="rounded=0;whiteSpace=wrap;html=1;labelBackgroundColor=#FFFFFF;" parent="Kza3IiyWU27NG2U3xxo6-5" vertex="1">
          <mxGeometry y="80" width="390" height="170" as="geometry" />
        </mxCell>
        <mxCell id="Kza3IiyWU27NG2U3xxo6-8" value="sp(标准产品)" style="text;html=1;strokeColor=none;fillColor=none;align=center;verticalAlign=middle;whiteSpace=wrap;rounded=0;labelBackgroundColor=#FFFFFF;" parent="Kza3IiyWU27NG2U3xxo6-5" vertex="1">
          <mxGeometry x="157.5" y="80" width="90" height="40" as="geometry" />
        </mxCell>
        <mxCell id="Kza3IiyWU27NG2U3xxo6-9" value="&lt;span&gt;探索(&lt;/span&gt;&lt;span style=&quot;font-family: consolas, &amp;quot;courier new&amp;quot;, monospace; font-size: 14px;&quot;&gt;discovery&lt;/span&gt;&lt;span&gt;)&lt;/span&gt;" style="rounded=1;whiteSpace=wrap;html=1;labelBackgroundColor=#FFFFFF;" parent="Kza3IiyWU27NG2U3xxo6-5" vertex="1">
          <mxGeometry x="15" y="191" width="100" height="40" as="geometry" />
        </mxCell>
        <mxCell id="Kza3IiyWU27NG2U3xxo6-10" style="edgeStyle=none;rounded=0;orthogonalLoop=1;jettySize=auto;html=1;exitX=0.5;exitY=1;exitDx=0;exitDy=0;entryX=0.5;entryY=0;entryDx=0;entryDy=0;endArrow=openThin;endFill=0;labelBackgroundColor=#FFFFFF;" parent="Kza3IiyWU27NG2U3xxo6-5" source="Kza3IiyWU27NG2U3xxo6-8" target="Kza3IiyWU27NG2U3xxo6-9" edge="1">
          <mxGeometry relative="1" as="geometry" />
        </mxCell>
        <mxCell id="Kza3IiyWU27NG2U3xxo6-11" value="&lt;span style=&quot;&quot;&gt;洞察(&lt;/span&gt;&lt;span style=&quot;font-family: &amp;quot;consolas&amp;quot; , &amp;quot;courier new&amp;quot; , monospace ; font-size: 14px&quot;&gt;insight&lt;/span&gt;)" style="rounded=1;whiteSpace=wrap;html=1;labelBackgroundColor=#FFFFFF;" parent="Kza3IiyWU27NG2U3xxo6-5" vertex="1">
          <mxGeometry x="152.5" y="190" width="100" height="40" as="geometry" />
        </mxCell>
        <mxCell id="Kza3IiyWU27NG2U3xxo6-12" style="edgeStyle=none;rounded=0;orthogonalLoop=1;jettySize=auto;html=1;exitX=0.5;exitY=1;exitDx=0;exitDy=0;endArrow=openThin;endFill=0;labelBackgroundColor=#FFFFFF;" parent="Kza3IiyWU27NG2U3xxo6-5" source="Kza3IiyWU27NG2U3xxo6-8" target="Kza3IiyWU27NG2U3xxo6-11" edge="1">
          <mxGeometry relative="1" as="geometry" />
        </mxCell>
        <mxCell id="Kza3IiyWU27NG2U3xxo6-13" value="研究(&lt;span style=&quot;font-family: consolas, &amp;quot;courier new&amp;quot;, monospace; font-size: 14px;&quot;&gt;research&lt;/span&gt;)" style="rounded=1;whiteSpace=wrap;html=1;labelBackgroundColor=#FFFFFF;" parent="Kza3IiyWU27NG2U3xxo6-5" vertex="1">
          <mxGeometry x="277" y="190" width="100" height="40" as="geometry" />
        </mxCell>
        <mxCell id="Kza3IiyWU27NG2U3xxo6-14" style="edgeStyle=none;rounded=0;orthogonalLoop=1;jettySize=auto;html=1;exitX=0.5;exitY=1;exitDx=0;exitDy=0;entryX=0.5;entryY=0;entryDx=0;entryDy=0;endArrow=openThin;endFill=0;labelBackgroundColor=#FFFFFF;" parent="Kza3IiyWU27NG2U3xxo6-5" source="Kza3IiyWU27NG2U3xxo6-8" target="Kza3IiyWU27NG2U3xxo6-13" edge="1">
          <mxGeometry relative="1" as="geometry" />
        </mxCell>
        <mxCell id="Kza3IiyWU27NG2U3xxo6-15" value="" style="shape=curlyBracket;whiteSpace=wrap;html=1;rounded=1;flipH=1;labelBackgroundColor=#FFFFFF;" parent="Kza3IiyWU27NG2U3xxo6-4" vertex="1">
          <mxGeometry x="404" y="20" width="20" height="200" as="geometry" />
        </mxCell>
        <mxCell id="Kza3IiyWU27NG2U3xxo6-16" value="项目部署(专用)" style="text;html=1;strokeColor=none;fillColor=none;align=center;verticalAlign=middle;whiteSpace=wrap;rounded=0;labelBackgroundColor=#FFFFFF;" parent="Kza3IiyWU27NG2U3xxo6-4" vertex="1">
          <mxGeometry x="434" y="100" width="51" height="40" as="geometry" />
        </mxCell>
        <mxCell id="Kza3IiyWU27NG2U3xxo6-17" value="" style="group;labelBackgroundColor=#FFFFFF;" parent="nkBP9FhSrCLW1QHYpYpv-4" vertex="1" connectable="0">
          <mxGeometry x="36" y="490" width="484" height="290" as="geometry" />
        </mxCell>
        <mxCell id="Kza3IiyWU27NG2U3xxo6-18" value="" style="rounded=0;whiteSpace=wrap;html=1;labelBackgroundColor=#FFFFFF;" parent="Kza3IiyWU27NG2U3xxo6-17" vertex="1">
          <mxGeometry y="10" width="484" height="290" as="geometry" />
        </mxCell>
        <mxCell id="Kza3IiyWU27NG2U3xxo6-19" value="&lt;span style=&quot;font-family: &amp;quot;helvetica&amp;quot;&quot;&gt;dmp(数据中台)&lt;/span&gt;" style="text;html=1;strokeColor=none;fillColor=none;align=center;verticalAlign=middle;whiteSpace=wrap;rounded=0;labelBackgroundColor=#FFFFFF;" parent="Kza3IiyWU27NG2U3xxo6-17" vertex="1">
          <mxGeometry x="202.25" y="10" width="94.5" height="30" as="geometry" />
        </mxCell>
        <mxCell id="Kza3IiyWU27NG2U3xxo6-20" value="数据标准管理" style="rounded=1;whiteSpace=wrap;html=1;labelBackgroundColor=#FFFFFF;" parent="Kza3IiyWU27NG2U3xxo6-17" vertex="1">
          <mxGeometry x="14" y="70" width="140" height="50" as="geometry" />
        </mxCell>
        <mxCell id="Kza3IiyWU27NG2U3xxo6-21" value="规则中心" style="rounded=1;whiteSpace=wrap;html=1;labelBackgroundColor=#FFFFFF;" parent="Kza3IiyWU27NG2U3xxo6-17" vertex="1">
          <mxGeometry x="174" y="70" width="140" height="50" as="geometry" />
        </mxCell>
        <mxCell id="Kza3IiyWU27NG2U3xxo6-22" value="全局调度" style="rounded=1;whiteSpace=wrap;html=1;labelBackgroundColor=#FFFFFF;" parent="Kza3IiyWU27NG2U3xxo6-17" vertex="1">
          <mxGeometry x="334" y="145" width="140" height="50" as="geometry" />
        </mxCell>
        <mxCell id="Kza3IiyWU27NG2U3xxo6-23" value="数据ETL配置" style="rounded=1;whiteSpace=wrap;html=1;labelBackgroundColor=#FFFFFF;" parent="Kza3IiyWU27NG2U3xxo6-17" vertex="1">
          <mxGeometry x="174" y="145" width="140" height="50" as="geometry" />
        </mxCell>
        <mxCell id="Kza3IiyWU27NG2U3xxo6-24" value="自助智能分析" style="rounded=1;whiteSpace=wrap;html=1;labelBackgroundColor=#FFFFFF;" parent="Kza3IiyWU27NG2U3xxo6-17" vertex="1">
          <mxGeometry x="174" y="220" width="140" height="50" as="geometry" />
        </mxCell>
        <mxCell id="Kza3IiyWU27NG2U3xxo6-25" value="数据采集" style="rounded=1;whiteSpace=wrap;html=1;labelBackgroundColor=#FFFFFF;" parent="Kza3IiyWU27NG2U3xxo6-17" vertex="1">
          <mxGeometry x="14" y="145" width="140" height="50" as="geometry" />
        </mxCell>
        <mxCell id="Kza3IiyWU27NG2U3xxo6-26" value="数据管理" style="rounded=1;whiteSpace=wrap;html=1;labelBackgroundColor=#FFFFFF;" parent="Kza3IiyWU27NG2U3xxo6-17" vertex="1">
          <mxGeometry x="334" y="220" width="140" height="50" as="geometry" />
        </mxCell>
        <mxCell id="Kza3IiyWU27NG2U3xxo6-27" value="元数据管理" style="rounded=1;whiteSpace=wrap;html=1;labelBackgroundColor=#FFFFFF;" parent="Kza3IiyWU27NG2U3xxo6-17" vertex="1">
          <mxGeometry x="334" y="70" width="140" height="50" as="geometry" />
        </mxCell>
        <mxCell id="Kza3IiyWU27NG2U3xxo6-28" value="数据质量管理" style="rounded=1;whiteSpace=wrap;html=1;labelBackgroundColor=#FFFFFF;" parent="Kza3IiyWU27NG2U3xxo6-17" vertex="1">
          <mxGeometry x="14" y="220" width="140" height="50" as="geometry" />
        </mxCell>
        <mxCell id="Kza3IiyWU27NG2U3xxo6-29" value="" style="group;labelBackgroundColor=#FFFFFF;" parent="nkBP9FhSrCLW1QHYpYpv-4" vertex="1" connectable="0">
          <mxGeometry x="36" y="840" width="484" height="170" as="geometry" />
        </mxCell>
        <mxCell id="Kza3IiyWU27NG2U3xxo6-30" value="" style="group;labelBackgroundColor=#FFFFFF;" parent="Kza3IiyWU27NG2U3xxo6-29" vertex="1" connectable="0">
          <mxGeometry width="484" height="169.99999999999997" as="geometry" />
        </mxCell>
        <mxCell id="Kza3IiyWU27NG2U3xxo6-31" value="" style="group;labelBackgroundColor=#FFFFFF;" parent="Kza3IiyWU27NG2U3xxo6-30" vertex="1" connectable="0">
          <mxGeometry width="484" height="169.99999999999997" as="geometry" />
        </mxCell>
        <mxCell id="Kza3IiyWU27NG2U3xxo6-32" value="" style="rounded=0;whiteSpace=wrap;html=1;labelBackgroundColor=#FFFFFF;" parent="Kza3IiyWU27NG2U3xxo6-31" vertex="1">
          <mxGeometry width="484" height="169.99999999999997" as="geometry" />
        </mxCell>
        <mxCell id="Kza3IiyWU27NG2U3xxo6-33" value="&lt;span style=&quot;font-family: &amp;quot;helvetica&amp;quot;&quot;&gt;gbc(业务中台)&lt;/span&gt;" style="text;html=1;strokeColor=none;fillColor=none;align=center;verticalAlign=middle;whiteSpace=wrap;rounded=0;labelBackgroundColor=#FFFFFF;" parent="Kza3IiyWU27NG2U3xxo6-31" vertex="1">
          <mxGeometry x="202.25" y="5.862068965517241" width="94.5" height="17.586206896551722" as="geometry" />
        </mxCell>
        <mxCell id="Kza3IiyWU27NG2U3xxo6-34" value="指标中心" style="rounded=1;whiteSpace=wrap;html=1;labelBackgroundColor=#FFFFFF;" parent="Kza3IiyWU27NG2U3xxo6-31" vertex="1">
          <mxGeometry x="44" y="80" width="146" height="48.97" as="geometry" />
        </mxCell>
        <mxCell id="Kza3IiyWU27NG2U3xxo6-35" value="用户画像" style="rounded=1;whiteSpace=wrap;html=1;labelBackgroundColor=#FFFFFF;" parent="Kza3IiyWU27NG2U3xxo6-31" vertex="1">
          <mxGeometry x="296.75" y="80" width="146" height="48.97" as="geometry" />
        </mxCell>
        <mxCell id="Kza3IiyWU27NG2U3xxo6-36" value="" style="group;labelBackgroundColor=#FFFFFF;" parent="nkBP9FhSrCLW1QHYpYpv-4" vertex="1" connectable="0">
          <mxGeometry x="38" y="1069" width="484" height="169.99999999999997" as="geometry" />
        </mxCell>
        <mxCell id="Kza3IiyWU27NG2U3xxo6-37" value="" style="group;labelBackgroundColor=#FFFFFF;" parent="Kza3IiyWU27NG2U3xxo6-36" vertex="1" connectable="0">
          <mxGeometry width="484" height="169.99999999999997" as="geometry" />
        </mxCell>
        <mxCell id="Kza3IiyWU27NG2U3xxo6-38" value="" style="rounded=0;whiteSpace=wrap;html=1;labelBackgroundColor=#FFFFFF;" parent="Kza3IiyWU27NG2U3xxo6-37" vertex="1">
          <mxGeometry width="484" height="169.99999999999997" as="geometry" />
        </mxCell>
        <mxCell id="Kza3IiyWU27NG2U3xxo6-39" value="&lt;span style=&quot;font-family: &amp;quot;helvetica&amp;quot;&quot;&gt;cfg(系统管理)&lt;/span&gt;" style="text;html=1;strokeColor=none;fillColor=none;align=center;verticalAlign=middle;whiteSpace=wrap;rounded=0;labelBackgroundColor=#FFFFFF;" parent="Kza3IiyWU27NG2U3xxo6-37" vertex="1">
          <mxGeometry x="202.25" y="5.862068965517241" width="94.5" height="17.586206896551722" as="geometry" />
        </mxCell>
        <mxCell id="Kza3IiyWU27NG2U3xxo6-40" value="控制台" style="rounded=1;whiteSpace=wrap;html=1;labelBackgroundColor=#FFFFFF;" parent="Kza3IiyWU27NG2U3xxo6-37" vertex="1">
          <mxGeometry x="44" y="80" width="146" height="48.97" as="geometry" />
        </mxCell>
        <mxCell id="Kza3IiyWU27NG2U3xxo6-41" value="管理中心" style="rounded=1;whiteSpace=wrap;html=1;labelBackgroundColor=#FFFFFF;" parent="Kza3IiyWU27NG2U3xxo6-37" vertex="1">
          <mxGeometry x="296.75" y="80" width="146" height="48.97" as="geometry" />
        </mxCell>
        <mxCell id="Kza3IiyWU27NG2U3xxo6-42" value="" style="rounded=0;whiteSpace=wrap;html=1;labelBackgroundColor=#FFFFFF;" parent="nkBP9FhSrCLW1QHYpYpv-4" vertex="1">
          <mxGeometry x="720" width="780" height="1430" as="geometry" />
        </mxCell>
        <mxCell id="Kza3IiyWU27NG2U3xxo6-45" value="编译(打包)" style="text;html=1;strokeColor=none;fillColor=none;align=center;verticalAlign=middle;whiteSpace=wrap;rounded=0;labelBackgroundColor=#FFFFFF;" parent="nkBP9FhSrCLW1QHYpYpv-4" vertex="1">
          <mxGeometry x="1050" y="10" width="120" height="30" as="geometry" />
        </mxCell>
        <mxCell id="Kza3IiyWU27NG2U3xxo6-46" value="&lt;span style=&quot;font-family: &amp;#34;consolas&amp;#34; , &amp;#34;courier new&amp;#34; , monospace&quot;&gt;&lt;b&gt;&lt;font style=&quot;font-size: 20px&quot; color=&quot;#cc00cc&quot;&gt;PLATFORM&lt;/font&gt;&lt;/b&gt;&lt;/span&gt;" style="text;html=1;strokeColor=none;fillColor=none;align=center;verticalAlign=middle;whiteSpace=wrap;rounded=0;labelBackgroundColor=#FFFFFF;" parent="nkBP9FhSrCLW1QHYpYpv-4" vertex="1">
          <mxGeometry x="940" y="70" width="80" height="40" as="geometry" />
        </mxCell>
        <mxCell id="Kza3IiyWU27NG2U3xxo6-43" style="edgeStyle=none;rounded=0;orthogonalLoop=1;jettySize=auto;html=1;exitX=0.5;exitY=1;exitDx=0;exitDy=0;endArrow=openThin;endFill=0;labelBackgroundColor=#FFFFFF;" parent="nkBP9FhSrCLW1QHYpYpv-4" source="Kza3IiyWU27NG2U3xxo6-45" target="Kza3IiyWU27NG2U3xxo6-46" edge="1">
          <mxGeometry relative="1" as="geometry" />
        </mxCell>
        <mxCell id="Kza3IiyWU27NG2U3xxo6-47" value="&lt;span style=&quot;font-family: &amp;#34;consolas&amp;#34; , &amp;#34;courier new&amp;#34; , monospace&quot;&gt;&lt;b&gt;&lt;font style=&quot;font-size: 20px&quot; color=&quot;#cc00cc&quot;&gt;PROJECTKEY&lt;/font&gt;&lt;/b&gt;&lt;/span&gt;" style="text;html=1;strokeColor=none;fillColor=none;align=center;verticalAlign=middle;whiteSpace=wrap;rounded=0;labelBackgroundColor=#FFFFFF;" parent="nkBP9FhSrCLW1QHYpYpv-4" vertex="1">
          <mxGeometry x="1171" y="70" width="100" height="40" as="geometry" />
        </mxCell>
        <mxCell id="Kza3IiyWU27NG2U3xxo6-44" style="edgeStyle=none;rounded=0;orthogonalLoop=1;jettySize=auto;html=1;exitX=0.5;exitY=1;exitDx=0;exitDy=0;entryX=0.5;entryY=0;entryDx=0;entryDy=0;endArrow=openThin;endFill=0;labelBackgroundColor=#FFFFFF;" parent="nkBP9FhSrCLW1QHYpYpv-4" source="Kza3IiyWU27NG2U3xxo6-45" target="Kza3IiyWU27NG2U3xxo6-47" edge="1">
          <mxGeometry relative="1" as="geometry" />
        </mxCell>
        <mxCell id="Kza3IiyWU27NG2U3xxo6-48" value="" style="shape=curlyBracket;whiteSpace=wrap;html=1;rounded=1;flipH=1;rotation=90;labelBackgroundColor=#FFFFFF;" parent="nkBP9FhSrCLW1QHYpYpv-4" vertex="1">
          <mxGeometry x="1100" y="-250" width="20" height="720" as="geometry" />
        </mxCell>
        <mxCell id="Kza3IiyWU27NG2U3xxo6-49" value="环境部署" style="text;html=1;strokeColor=none;fillColor=none;align=center;verticalAlign=middle;whiteSpace=wrap;rounded=0;labelBackgroundColor=#FFFFFF;" parent="nkBP9FhSrCLW1QHYpYpv-4" vertex="1">
          <mxGeometry x="1065" y="130" width="90" height="20" as="geometry" />
        </mxCell>
        <mxCell id="Kza3IiyWU27NG2U3xxo6-50" value="" style="group;labelBackgroundColor=#FFFFFF;" parent="nkBP9FhSrCLW1QHYpYpv-4" vertex="1" connectable="0">
          <mxGeometry x="760" y="160" width="254.38" height="1090" as="geometry" />
        </mxCell>
        <mxCell id="Kza3IiyWU27NG2U3xxo6-51" value="" style="rounded=1;whiteSpace=wrap;html=1;labelBackgroundColor=#FFFFFF;" parent="Kza3IiyWU27NG2U3xxo6-50" vertex="1">
          <mxGeometry width="240" height="1090" as="geometry" />
        </mxCell>
        <mxCell id="Kza3IiyWU27NG2U3xxo6-52" value="dev" style="text;html=1;strokeColor=none;fillColor=none;align=center;verticalAlign=middle;whiteSpace=wrap;rounded=0;labelBackgroundColor=#FFFFFF;" parent="Kza3IiyWU27NG2U3xxo6-50" vertex="1">
          <mxGeometry x="84" y="10" width="48" height="20" as="geometry" />
        </mxCell>
        <mxCell id="Kza3IiyWU27NG2U3xxo6-53" value="&lt;div style=&quot;font-family: &amp;quot;consolas&amp;quot; , &amp;quot;courier new&amp;quot; , monospace ; font-size: 14px ; line-height: 19px&quot;&gt;&lt;span style=&quot;&quot;&gt;npm&amp;nbsp;run&amp;nbsp;test-login&lt;/span&gt;&lt;/div&gt;" style="html=1;shadow=0;dashed=0;align=center;verticalAlign=middle;shape=mxgraph.arrows2.arrow;dy=0;dx=10;notch=0;rounded=0;fontSize=13;strokeWidth=1;labelBackgroundColor=#FFFFFF;" parent="Kza3IiyWU27NG2U3xxo6-50" vertex="1">
          <mxGeometry x="32" y="35" width="188" height="30" as="geometry" />
        </mxCell>
        <mxCell id="Kza3IiyWU27NG2U3xxo6-54" value="&lt;div style=&quot;font-family: &amp;quot;consolas&amp;quot; , &amp;quot;courier new&amp;quot; , monospace ; font-size: 14px ; line-height: 19px&quot;&gt;&lt;div style=&quot;font-family: consolas, &amp;quot;courier new&amp;quot;, monospace; line-height: 19px;&quot;&gt;npm&amp;nbsp;run&amp;nbsp;test-sp&lt;/div&gt;&lt;/div&gt;" style="html=1;shadow=0;dashed=0;align=center;verticalAlign=middle;shape=mxgraph.arrows2.arrow;dy=0;dx=10;notch=0;rounded=0;fontSize=13;strokeWidth=1;labelBackgroundColor=#FFFFFF;" parent="Kza3IiyWU27NG2U3xxo6-50" vertex="1">
          <mxGeometry x="26" y="170" width="188" height="30" as="geometry" />
        </mxCell>
        <mxCell id="Kza3IiyWU27NG2U3xxo6-55" value="&lt;div style=&quot;font-family: &amp;quot;consolas&amp;quot; , &amp;quot;courier new&amp;quot; , monospace ; font-size: 14px ; line-height: 19px&quot;&gt;&lt;div style=&quot;font-family: consolas, &amp;quot;courier new&amp;quot;, monospace; line-height: 19px;&quot;&gt;npm&amp;nbsp;run&amp;nbsp;test-dmp&lt;/div&gt;&lt;/div&gt;" style="html=1;shadow=0;dashed=0;align=center;verticalAlign=middle;shape=mxgraph.arrows2.arrow;dy=0;dx=10;notch=0;rounded=0;fontSize=13;strokeWidth=1;labelBackgroundColor=#FFFFFF;" parent="Kza3IiyWU27NG2U3xxo6-50" vertex="1">
          <mxGeometry x="32" y="467" width="188" height="30" as="geometry" />
        </mxCell>
        <mxCell id="Kza3IiyWU27NG2U3xxo6-56" value="&lt;div style=&quot;font-family: &amp;quot;consolas&amp;quot; , &amp;quot;courier new&amp;quot; , monospace ; font-size: 14px ; line-height: 19px&quot;&gt;&lt;div style=&quot;font-family: consolas, &amp;quot;courier new&amp;quot;, monospace; line-height: 19px;&quot;&gt;npm&amp;nbsp;run&amp;nbsp;test-gbc&lt;/div&gt;&lt;/div&gt;" style="html=1;shadow=0;dashed=0;align=center;verticalAlign=middle;shape=mxgraph.arrows2.arrow;dy=0;dx=10;notch=0;rounded=0;fontSize=13;strokeWidth=1;labelBackgroundColor=#FFFFFF;" parent="Kza3IiyWU27NG2U3xxo6-50" vertex="1">
          <mxGeometry x="26" y="750" width="188" height="30" as="geometry" />
        </mxCell>
        <mxCell id="Kza3IiyWU27NG2U3xxo6-57" value="&lt;div style=&quot;font-family: &amp;quot;consolas&amp;quot; , &amp;quot;courier new&amp;quot; , monospace ; font-size: 14px ; line-height: 19px&quot;&gt;&lt;div style=&quot;font-family: consolas, &amp;quot;courier new&amp;quot;, monospace; line-height: 19px;&quot;&gt;npm&amp;nbsp;run&amp;nbsp;test-console&lt;/div&gt;&lt;/div&gt;" style="html=1;shadow=0;dashed=0;align=center;verticalAlign=middle;shape=mxgraph.arrows2.arrow;dy=0;dx=10;notch=0;rounded=0;fontSize=13;strokeWidth=1;labelBackgroundColor=#FFFFFF;" parent="Kza3IiyWU27NG2U3xxo6-50" vertex="1">
          <mxGeometry x="13.25" y="960" width="213.5" height="30" as="geometry" />
        </mxCell>
        <mxCell id="Kza3IiyWU27NG2U3xxo6-58" value="&lt;div style=&quot;font-family: &amp;quot;consolas&amp;quot; , &amp;quot;courier new&amp;quot; , monospace ; font-size: 14px ; line-height: 19px&quot;&gt;&lt;div style=&quot;font-family: consolas, &amp;quot;courier new&amp;quot;, monospace; line-height: 19px;&quot;&gt;npm&amp;nbsp;run&amp;nbsp;test-control-center&lt;/div&gt;&lt;/div&gt;" style="html=1;shadow=0;dashed=0;align=center;verticalAlign=middle;shape=mxgraph.arrows2.arrow;dy=0;dx=10;notch=0;rounded=0;fontSize=13;strokeWidth=1;labelBackgroundColor=#FFFFFF;" parent="Kza3IiyWU27NG2U3xxo6-50" vertex="1">
          <mxGeometry x="8" y="1030" width="222" height="30" as="geometry" />
        </mxCell>
        <mxCell id="qb-1cHCd0RZ5rxBXuWEn-5" value="" style="group" parent="Kza3IiyWU27NG2U3xxo6-50" vertex="1" connectable="0">
          <mxGeometry x="40.00000000000005" y="234.91000000000003" width="140" height="198.77" as="geometry" />
        </mxCell>
        <mxCell id="qb-1cHCd0RZ5rxBXuWEn-7" value="" style="group" parent="qb-1cHCd0RZ5rxBXuWEn-5" vertex="1" connectable="0">
          <mxGeometry x="-1.2556927923051503e-14" width="140" height="198.77000000000004" as="geometry" />
        </mxCell>
        <mxCell id="qb-1cHCd0RZ5rxBXuWEn-9" value="" style="group" parent="qb-1cHCd0RZ5rxBXuWEn-7" vertex="1" connectable="0">
          <mxGeometry x="1.2556927923051503e-14" width="140" height="198.77000000000004" as="geometry" />
        </mxCell>
        <mxCell id="qb-1cHCd0RZ5rxBXuWEn-1" value="" style="html=1;shadow=0;dashed=0;align=center;verticalAlign=middle;shape=mxgraph.arrows2.arrow;dy=0;dx=10;notch=10;rotation=90;" parent="qb-1cHCd0RZ5rxBXuWEn-9" vertex="1">
          <mxGeometry x="-38.21194142893208" y="35.09496039684809" width="216.42388285786416" height="128.58007920630388" as="geometry" />
        </mxCell>
        <mxCell id="qb-1cHCd0RZ5rxBXuWEn-2" value="&lt;span style=&quot;background-color: rgb(255 , 255 , 255)&quot;&gt;&lt;i&gt;&lt;font color=&quot;#ff0000&quot;&gt;npm run test-系统名&lt;/font&gt;&lt;/i&gt;&lt;/span&gt;" style="text;html=1;strokeColor=none;fillColor=none;align=center;verticalAlign=middle;whiteSpace=wrap;rounded=0;" parent="qb-1cHCd0RZ5rxBXuWEn-9" vertex="1">
          <mxGeometry x="14.336657409745014" y="88.70516004572735" width="111.33552133299669" height="21.351564528640836" as="geometry" />
        </mxCell>
        <mxCell id="Kza3IiyWU27NG2U3xxo6-59" value="" style="group;labelBackgroundColor=#FFFFFF;" parent="nkBP9FhSrCLW1QHYpYpv-4" vertex="1" connectable="0">
          <mxGeometry x="1010" y="160" width="230.5" height="1090" as="geometry" />
        </mxCell>
        <mxCell id="Kza3IiyWU27NG2U3xxo6-60" value="" style="rounded=1;whiteSpace=wrap;html=1;labelBackgroundColor=#FFFFFF;" parent="Kza3IiyWU27NG2U3xxo6-59" vertex="1">
          <mxGeometry width="229.99999999999997" height="1090" as="geometry" />
        </mxCell>
        <mxCell id="Kza3IiyWU27NG2U3xxo6-61" value="release" style="text;html=1;strokeColor=none;fillColor=none;align=center;verticalAlign=middle;whiteSpace=wrap;rounded=0;labelBackgroundColor=#FFFFFF;" parent="Kza3IiyWU27NG2U3xxo6-59" vertex="1">
          <mxGeometry x="92" y="10" width="46" height="20" as="geometry" />
        </mxCell>
        <mxCell id="Kza3IiyWU27NG2U3xxo6-62" value="&lt;div style=&quot;font-family: &amp;quot;consolas&amp;quot; , &amp;quot;courier new&amp;quot; , monospace ; font-size: 14px ; line-height: 19px&quot;&gt;&lt;div style=&quot;font-family: consolas, &amp;quot;courier new&amp;quot;, monospace; line-height: 19px;&quot;&gt;npm&amp;nbsp;run&amp;nbsp;local-login&lt;/div&gt;&lt;/div&gt;" style="html=1;shadow=0;dashed=0;align=center;verticalAlign=middle;shape=mxgraph.arrows2.arrow;dy=0;dx=10;notch=0;rounded=0;fontSize=13;strokeWidth=1;labelBackgroundColor=#FFFFFF;" parent="Kza3IiyWU27NG2U3xxo6-59" vertex="1">
          <mxGeometry x="23" y="30" width="188" height="30" as="geometry" />
        </mxCell>
        <mxCell id="Kza3IiyWU27NG2U3xxo6-63" value="&lt;div style=&quot;font-family: &amp;quot;consolas&amp;quot; , &amp;quot;courier new&amp;quot; , monospace ; font-size: 14px ; line-height: 19px&quot;&gt;&lt;div style=&quot;font-family: consolas, &amp;quot;courier new&amp;quot;, monospace; line-height: 19px;&quot;&gt;npm&amp;nbsp;run&amp;nbsp;local-sp&lt;/div&gt;&lt;/div&gt;" style="html=1;shadow=0;dashed=0;align=center;verticalAlign=middle;shape=mxgraph.arrows2.arrow;dy=0;dx=10;notch=0;rounded=0;fontSize=13;strokeWidth=1;labelBackgroundColor=#FFFFFF;" parent="Kza3IiyWU27NG2U3xxo6-59" vertex="1">
          <mxGeometry x="21" y="170" width="188" height="30" as="geometry" />
        </mxCell>
        <mxCell id="Kza3IiyWU27NG2U3xxo6-64" value="&lt;div style=&quot;font-family: &amp;quot;consolas&amp;quot; , &amp;quot;courier new&amp;quot; , monospace ; font-size: 14px ; line-height: 19px&quot;&gt;&lt;div style=&quot;font-family: consolas, &amp;quot;courier new&amp;quot;, monospace; line-height: 19px;&quot;&gt;npm&amp;nbsp;run&amp;nbsp;local-dmp&lt;/div&gt;&lt;/div&gt;" style="html=1;shadow=0;dashed=0;align=center;verticalAlign=middle;shape=mxgraph.arrows2.arrow;dy=0;dx=10;notch=0;rounded=0;fontSize=13;strokeWidth=1;labelBackgroundColor=#FFFFFF;" parent="Kza3IiyWU27NG2U3xxo6-59" vertex="1">
          <mxGeometry x="21" y="465" width="188" height="30" as="geometry" />
        </mxCell>
        <mxCell id="Kza3IiyWU27NG2U3xxo6-65" value="&lt;div style=&quot;font-family: &amp;quot;consolas&amp;quot; , &amp;quot;courier new&amp;quot; , monospace ; font-size: 14px ; line-height: 19px&quot;&gt;&lt;div style=&quot;font-family: consolas, &amp;quot;courier new&amp;quot;, monospace; line-height: 19px;&quot;&gt;npm&amp;nbsp;run&amp;nbsp;local-gbc&lt;/div&gt;&lt;/div&gt;" style="html=1;shadow=0;dashed=0;align=center;verticalAlign=middle;shape=mxgraph.arrows2.arrow;dy=0;dx=10;notch=0;rounded=0;fontSize=13;strokeWidth=1;labelBackgroundColor=#FFFFFF;" parent="Kza3IiyWU27NG2U3xxo6-59" vertex="1">
          <mxGeometry x="23" y="750" width="188" height="30" as="geometry" />
        </mxCell>
        <mxCell id="Kza3IiyWU27NG2U3xxo6-66" value="&lt;div style=&quot;font-family: &amp;quot;consolas&amp;quot; , &amp;quot;courier new&amp;quot; , monospace ; font-size: 14px ; line-height: 19px&quot;&gt;&lt;div style=&quot;font-family: consolas, &amp;quot;courier new&amp;quot;, monospace; line-height: 19px;&quot;&gt;&lt;div style=&quot;font-family: &amp;quot;consolas&amp;quot; , &amp;quot;courier new&amp;quot; , monospace ; line-height: 19px&quot;&gt;npm&amp;nbsp;run&amp;nbsp;local-console&lt;/div&gt;&lt;/div&gt;&lt;/div&gt;" style="html=1;shadow=0;dashed=0;align=center;verticalAlign=middle;shape=mxgraph.arrows2.arrow;dy=0;dx=10;notch=0;rounded=0;fontSize=13;strokeWidth=1;labelBackgroundColor=#FFFFFF;" parent="Kza3IiyWU27NG2U3xxo6-59" vertex="1">
          <mxGeometry x="13.75" y="960" width="206.5" height="30" as="geometry" />
        </mxCell>
        <mxCell id="Kza3IiyWU27NG2U3xxo6-67" value="&lt;div style=&quot;font-family: &amp;quot;consolas&amp;quot; , &amp;quot;courier new&amp;quot; , monospace ; font-size: 14px ; line-height: 19px&quot;&gt;&lt;div style=&quot;font-family: consolas, &amp;quot;courier new&amp;quot;, monospace; line-height: 19px;&quot;&gt;&lt;div style=&quot;font-family: &amp;quot;consolas&amp;quot; , &amp;quot;courier new&amp;quot; , monospace ; line-height: 19px&quot;&gt;npm&amp;nbsp;run&amp;nbsp;local-control-center&lt;/div&gt;&lt;/div&gt;&lt;/div&gt;" style="html=1;shadow=0;dashed=0;align=center;verticalAlign=middle;shape=mxgraph.arrows2.arrow;dy=0;dx=10;notch=0;rounded=0;fontSize=13;strokeWidth=1;labelBackgroundColor=#FFFFFF;" parent="Kza3IiyWU27NG2U3xxo6-59" vertex="1">
          <mxGeometry x="1.5" y="1030" width="228.5" height="30" as="geometry" />
        </mxCell>
        <mxCell id="qb-1cHCd0RZ5rxBXuWEn-11" value="" style="html=1;shadow=0;dashed=0;align=center;verticalAlign=middle;shape=mxgraph.arrows2.arrow;dy=0;dx=10;notch=10;rotation=90;" parent="Kza3IiyWU27NG2U3xxo6-59" vertex="1">
          <mxGeometry x="6.78805857106795" y="270.0049603968481" width="216.42388285786416" height="128.58007920630388" as="geometry" />
        </mxCell>
        <mxCell id="qb-1cHCd0RZ5rxBXuWEn-13" value="&lt;span style=&quot;background-color: rgb(255 , 255 , 255)&quot;&gt;&lt;i&gt;&lt;font color=&quot;#ff0000&quot;&gt;npm run local-系统名&lt;/font&gt;&lt;/i&gt;&lt;/span&gt;" style="text;html=1;strokeColor=none;fillColor=none;align=center;verticalAlign=middle;whiteSpace=wrap;rounded=0;" parent="Kza3IiyWU27NG2U3xxo6-59" vertex="1">
          <mxGeometry x="40.75" y="314.29" width="150" height="40" as="geometry" />
        </mxCell>
        <mxCell id="Kza3IiyWU27NG2U3xxo6-68" value="" style="group;labelBackgroundColor=#FFFFFF;" parent="nkBP9FhSrCLW1QHYpYpv-4" vertex="1" connectable="0">
          <mxGeometry x="1250" y="160" width="227" height="1090" as="geometry" />
        </mxCell>
        <mxCell id="Kza3IiyWU27NG2U3xxo6-69" value="" style="rounded=1;whiteSpace=wrap;html=1;labelBackgroundColor=#FFFFFF;" parent="Kza3IiyWU27NG2U3xxo6-68" vertex="1">
          <mxGeometry width="220" height="1090" as="geometry" />
        </mxCell>
        <mxCell id="Kza3IiyWU27NG2U3xxo6-70" value="master" style="text;html=1;strokeColor=none;fillColor=none;align=center;verticalAlign=middle;whiteSpace=wrap;rounded=0;labelBackgroundColor=#FFFFFF;" parent="Kza3IiyWU27NG2U3xxo6-68" vertex="1">
          <mxGeometry x="88" y="10" width="44" height="20" as="geometry" />
        </mxCell>
        <mxCell id="Kza3IiyWU27NG2U3xxo6-71" value="&lt;div style=&quot;font-family: &amp;quot;consolas&amp;quot; , &amp;quot;courier new&amp;quot; , monospace ; font-size: 14px ; line-height: 19px&quot;&gt;&lt;div style=&quot;font-family: consolas, &amp;quot;courier new&amp;quot;, monospace; line-height: 19px;&quot;&gt;npm&amp;nbsp;run&amp;nbsp;build-login&lt;/div&gt;&lt;/div&gt;" style="html=1;shadow=0;dashed=0;align=center;verticalAlign=middle;shape=mxgraph.arrows2.arrow;dy=0;dx=10;notch=0;rounded=0;fontSize=13;strokeWidth=1;labelBackgroundColor=#FFFFFF;" parent="Kza3IiyWU27NG2U3xxo6-68" vertex="1">
          <mxGeometry x="16" y="30" width="188" height="30" as="geometry" />
        </mxCell>
        <mxCell id="Kza3IiyWU27NG2U3xxo6-72" value="&lt;div style=&quot;font-family: &amp;quot;consolas&amp;quot; , &amp;quot;courier new&amp;quot; , monospace ; font-size: 14px ; line-height: 19px&quot;&gt;&lt;div style=&quot;font-family: consolas, &amp;quot;courier new&amp;quot;, monospace; line-height: 19px;&quot;&gt;npm&amp;nbsp;run&amp;nbsp;build-sp&lt;/div&gt;&lt;/div&gt;" style="html=1;shadow=0;dashed=0;align=center;verticalAlign=middle;shape=mxgraph.arrows2.arrow;dy=0;dx=10;notch=0;rounded=0;fontSize=13;strokeWidth=1;labelBackgroundColor=#FFFFFF;" parent="Kza3IiyWU27NG2U3xxo6-68" vertex="1">
          <mxGeometry x="16" y="180" width="188" height="30" as="geometry" />
        </mxCell>
        <mxCell id="Kza3IiyWU27NG2U3xxo6-73" value="&lt;div style=&quot;font-family: &amp;quot;consolas&amp;quot; , &amp;quot;courier new&amp;quot; , monospace ; font-size: 14px ; line-height: 19px&quot;&gt;&lt;div style=&quot;font-family: consolas, &amp;quot;courier new&amp;quot;, monospace; line-height: 19px;&quot;&gt;npm&amp;nbsp;run&amp;nbsp;build-dmp&lt;/div&gt;&lt;/div&gt;" style="html=1;shadow=0;dashed=0;align=center;verticalAlign=middle;shape=mxgraph.arrows2.arrow;dy=0;dx=10;notch=0;rounded=0;fontSize=13;strokeWidth=1;labelBackgroundColor=#FFFFFF;" parent="Kza3IiyWU27NG2U3xxo6-68" vertex="1">
          <mxGeometry x="16" y="465" width="188" height="30" as="geometry" />
        </mxCell>
        <mxCell id="Kza3IiyWU27NG2U3xxo6-74" value="&lt;div style=&quot;font-family: &amp;quot;consolas&amp;quot; , &amp;quot;courier new&amp;quot; , monospace ; font-size: 14px ; line-height: 19px&quot;&gt;&lt;div style=&quot;font-family: consolas, &amp;quot;courier new&amp;quot;, monospace; line-height: 19px;&quot;&gt;npm&amp;nbsp;run&amp;nbsp;build-gbc&lt;/div&gt;&lt;/div&gt;" style="html=1;shadow=0;dashed=0;align=center;verticalAlign=middle;shape=mxgraph.arrows2.arrow;dy=0;dx=10;notch=0;rounded=0;fontSize=13;strokeWidth=1;labelBackgroundColor=#FFFFFF;" parent="Kza3IiyWU27NG2U3xxo6-68" vertex="1">
          <mxGeometry x="16" y="750" width="188" height="30" as="geometry" />
        </mxCell>
        <mxCell id="Kza3IiyWU27NG2U3xxo6-75" value="&lt;div style=&quot;font-family: &amp;quot;consolas&amp;quot; , &amp;quot;courier new&amp;quot; , monospace ; font-size: 14px ; line-height: 19px&quot;&gt;&lt;div style=&quot;font-family: consolas, &amp;quot;courier new&amp;quot;, monospace; line-height: 19px;&quot;&gt;&lt;div style=&quot;font-family: &amp;quot;consolas&amp;quot; , &amp;quot;courier new&amp;quot; , monospace ; line-height: 19px&quot;&gt;npm&amp;nbsp;run&amp;nbsp;build-console&lt;/div&gt;&lt;/div&gt;&lt;/div&gt;" style="html=1;shadow=0;dashed=0;align=center;verticalAlign=middle;shape=mxgraph.arrows2.arrow;dy=0;dx=10;notch=0;rounded=0;fontSize=13;strokeWidth=1;labelBackgroundColor=#FFFFFF;" parent="Kza3IiyWU27NG2U3xxo6-68" vertex="1">
          <mxGeometry x="14" y="960" width="190" height="30" as="geometry" />
        </mxCell>
        <mxCell id="Kza3IiyWU27NG2U3xxo6-76" value="&lt;div style=&quot;font-family: &amp;quot;consolas&amp;quot; , &amp;quot;courier new&amp;quot; , monospace ; font-size: 14px ; line-height: 19px&quot;&gt;&lt;div style=&quot;font-family: consolas, &amp;quot;courier new&amp;quot;, monospace; line-height: 19px;&quot;&gt;&lt;div style=&quot;font-family: &amp;quot;consolas&amp;quot; , &amp;quot;courier new&amp;quot; , monospace ; line-height: 19px&quot;&gt;npm&amp;nbsp;run&amp;nbsp;build-control-center&lt;/div&gt;&lt;/div&gt;&lt;/div&gt;" style="html=1;shadow=0;dashed=0;align=center;verticalAlign=middle;shape=mxgraph.arrows2.arrow;dy=0;dx=10;notch=0;rounded=0;fontSize=13;strokeWidth=1;labelBackgroundColor=#FFFFFF;" parent="Kza3IiyWU27NG2U3xxo6-68" vertex="1">
          <mxGeometry y="1030" width="220" height="30" as="geometry" />
        </mxCell>
        <mxCell id="qb-1cHCd0RZ5rxBXuWEn-12" value="" style="html=1;shadow=0;dashed=0;align=center;verticalAlign=middle;shape=mxgraph.arrows2.arrow;dy=0;dx=10;notch=10;rotation=90;" parent="Kza3IiyWU27NG2U3xxo6-68" vertex="1">
          <mxGeometry x="-0.0019414289320138778" y="270.0049603968481" width="216.42388285786416" height="128.58007920630388" as="geometry" />
        </mxCell>
        <mxCell id="qb-1cHCd0RZ5rxBXuWEn-14" value="&lt;span style=&quot;background-color: rgb(255 , 255 , 255)&quot;&gt;&lt;i&gt;&lt;font color=&quot;#ff0000&quot;&gt;npm run build-系统名&lt;/font&gt;&lt;/i&gt;&lt;/span&gt;" style="text;html=1;strokeColor=none;fillColor=none;align=center;verticalAlign=middle;whiteSpace=wrap;rounded=0;" parent="Kza3IiyWU27NG2U3xxo6-68" vertex="1">
          <mxGeometry x="48.210000000000036" y="319.3" width="120" height="30" as="geometry" />
        </mxCell>
        <mxCell id="Kza3IiyWU27NG2U3xxo6-77" value="" style="rounded=0;whiteSpace=wrap;html=1;labelBackgroundColor=#FFFFFF;" parent="nkBP9FhSrCLW1QHYpYpv-4" vertex="1">
          <mxGeometry x="1680" width="1580" height="1430" as="geometry" />
        </mxCell>
        <mxCell id="Kza3IiyWU27NG2U3xxo6-78" value="Nginx(部署)" style="text;html=1;strokeColor=none;fillColor=none;align=center;verticalAlign=middle;whiteSpace=wrap;rounded=0;labelBackgroundColor=#FFFFFF;" parent="nkBP9FhSrCLW1QHYpYpv-4" vertex="1">
          <mxGeometry x="2420" y="15" width="100" height="25" as="geometry" />
        </mxCell>
        <mxCell id="Kza3IiyWU27NG2U3xxo6-79" value="" style="group;rounded=1;labelBackgroundColor=#FFFFFF;" parent="nkBP9FhSrCLW1QHYpYpv-4" vertex="1" connectable="0">
          <mxGeometry x="1700" y="160" width="1240" height="1250" as="geometry" />
        </mxCell>
        <mxCell id="Kza3IiyWU27NG2U3xxo6-80" value="" style="rounded=0;whiteSpace=wrap;html=1;fontSize=13;strokeWidth=1;labelBackgroundColor=#FFFFFF;strokeColor=#7F00FF;" parent="Kza3IiyWU27NG2U3xxo6-79" vertex="1">
          <mxGeometry x="-10" y="-40" width="820" height="1290" as="geometry" />
        </mxCell>
        <mxCell id="Kza3IiyWU27NG2U3xxo6-81" value="" style="rounded=0;whiteSpace=wrap;html=1;dashed=1;labelBackgroundColor=#FFFFFF;" parent="Kza3IiyWU27NG2U3xxo6-79" vertex="1">
          <mxGeometry width="720" height="290" as="geometry" />
        </mxCell>
        <mxCell id="Kza3IiyWU27NG2U3xxo6-82" value="项目部署(专用)" style="text;html=1;strokeColor=none;fillColor=none;align=center;verticalAlign=middle;whiteSpace=wrap;rounded=0;labelBackgroundColor=#FFFFFF;" parent="Kza3IiyWU27NG2U3xxo6-79" vertex="1">
          <mxGeometry x="304.5" y="10" width="111" height="20" as="geometry" />
        </mxCell>
        <mxCell id="Kza3IiyWU27NG2U3xxo6-83" value="" style="rounded=0;whiteSpace=wrap;html=1;strokeWidth=1;recursiveResize=1;labelBackgroundColor=#FFFFFF;" parent="Kza3IiyWU27NG2U3xxo6-79" vertex="1">
          <mxGeometry x="30" y="130" width="560" height="140" as="geometry" />
        </mxCell>
        <mxCell id="Kza3IiyWU27NG2U3xxo6-84" value="" style="shape=curlyBracket;whiteSpace=wrap;html=1;rounded=1;flipH=1;strokeWidth=1;labelBackgroundColor=#FFFFFF;" parent="Kza3IiyWU27NG2U3xxo6-79" vertex="1">
          <mxGeometry x="606" y="50" width="40" height="220" as="geometry" />
        </mxCell>
        <mxCell id="Kza3IiyWU27NG2U3xxo6-85" value="标准产品&lt;br&gt;(2种方式)" style="text;html=1;strokeColor=none;fillColor=none;align=center;verticalAlign=middle;whiteSpace=wrap;rounded=0;labelBackgroundColor=#FFFFFF;" parent="Kza3IiyWU27NG2U3xxo6-79" vertex="1">
          <mxGeometry x="644" y="145" width="70" height="30" as="geometry" />
        </mxCell>
        <mxCell id="Kza3IiyWU27NG2U3xxo6-86" value="login 包" style="rounded=1;whiteSpace=wrap;html=1;labelBackgroundColor=#FFFFFF;" parent="Kza3IiyWU27NG2U3xxo6-79" vertex="1">
          <mxGeometry x="150" y="145" width="320" height="40" as="geometry" />
        </mxCell>
        <mxCell id="Kza3IiyWU27NG2U3xxo6-87" value="sp 包" style="rounded=1;whiteSpace=wrap;html=1;labelBackgroundColor=#FFFFFF;" parent="Kza3IiyWU27NG2U3xxo6-79" vertex="1">
          <mxGeometry x="150" y="210" width="320" height="40" as="geometry" />
        </mxCell>
        <mxCell id="Kza3IiyWU27NG2U3xxo6-88" value="旧模式" style="text;html=1;strokeColor=none;fillColor=none;align=center;verticalAlign=middle;whiteSpace=wrap;rounded=0;horizontal=1;fontSize=13;labelBackgroundColor=#FFFFFF;" parent="Kza3IiyWU27NG2U3xxo6-79" vertex="1">
          <mxGeometry x="500" y="175" width="70" height="45" as="geometry" />
        </mxCell>
        <mxCell id="Kza3IiyWU27NG2U3xxo6-89" value="" style="group;labelBackgroundColor=#FFFFFF;" parent="Kza3IiyWU27NG2U3xxo6-79" vertex="1" connectable="0">
          <mxGeometry x="30" y="10" width="696" height="260" as="geometry" />
        </mxCell>
        <mxCell id="Kza3IiyWU27NG2U3xxo6-90" value="login + sp 包（新模式）" style="rounded=1;whiteSpace=wrap;html=1;labelBackgroundColor=#FFFFFF;" parent="Kza3IiyWU27NG2U3xxo6-89" vertex="1">
          <mxGeometry y="40" width="560" height="50" as="geometry" />
        </mxCell>
        <mxCell id="Kza3IiyWU27NG2U3xxo6-91" value="标准产品&lt;br&gt;(2种方式)" style="text;html=1;strokeColor=none;fillColor=none;align=center;verticalAlign=middle;whiteSpace=wrap;rounded=0;labelBackgroundColor=#FFFFFF;" parent="Kza3IiyWU27NG2U3xxo6-89" vertex="1">
          <mxGeometry x="614" y="135" width="70" height="30" as="geometry" />
        </mxCell>
        <mxCell id="Kza3IiyWU27NG2U3xxo6-92" value="" style="rounded=0;whiteSpace=wrap;html=1;strokeWidth=1;recursiveResize=1;labelBackgroundColor=#FFFFFF;" parent="Kza3IiyWU27NG2U3xxo6-89" vertex="1">
          <mxGeometry y="120" width="560" height="140" as="geometry" />
        </mxCell>
        <mxCell id="Kza3IiyWU27NG2U3xxo6-93" value="login 包" style="rounded=1;whiteSpace=wrap;html=1;labelBackgroundColor=#FFFFFF;" parent="Kza3IiyWU27NG2U3xxo6-89" vertex="1">
          <mxGeometry x="120" y="135" width="320" height="40" as="geometry" />
        </mxCell>
        <mxCell id="Kza3IiyWU27NG2U3xxo6-94" value="sp 包" style="rounded=1;whiteSpace=wrap;html=1;labelBackgroundColor=#FFFFFF;" parent="Kza3IiyWU27NG2U3xxo6-89" vertex="1">
          <mxGeometry x="120" y="200" width="320" height="40" as="geometry" />
        </mxCell>
        <mxCell id="Kza3IiyWU27NG2U3xxo6-95" value="旧模式" style="text;html=1;strokeColor=none;fillColor=none;align=center;verticalAlign=middle;whiteSpace=wrap;rounded=0;horizontal=1;fontSize=13;labelBackgroundColor=#FFFFFF;" parent="Kza3IiyWU27NG2U3xxo6-89" vertex="1">
          <mxGeometry x="470" y="165" width="70" height="45" as="geometry" />
        </mxCell>
        <mxCell id="Kza3IiyWU27NG2U3xxo6-96" value="项目部署(专用)" style="text;html=1;strokeColor=none;fillColor=none;align=center;verticalAlign=middle;whiteSpace=wrap;rounded=0;labelBackgroundColor=#FFFFFF;" parent="Kza3IiyWU27NG2U3xxo6-89" vertex="1">
          <mxGeometry x="274.5" width="111" height="20" as="geometry" />
        </mxCell>
        <mxCell id="Kza3IiyWU27NG2U3xxo6-97" value="" style="shape=curlyBracket;whiteSpace=wrap;html=1;rounded=1;flipH=1;strokeWidth=1;labelBackgroundColor=#FFFFFF;" parent="Kza3IiyWU27NG2U3xxo6-89" vertex="1">
          <mxGeometry x="576" y="40" width="40" height="220" as="geometry" />
        </mxCell>
        <mxCell id="Kza3IiyWU27NG2U3xxo6-98" value="" style="shape=curlyBracket;whiteSpace=wrap;html=1;rounded=1;flipH=1;labelBackgroundColor=#FFFFFF;fontSize=13;fontColor=#000000;strokeColor=#000000;strokeWidth=1;size=0.44285714285714284;" parent="Kza3IiyWU27NG2U3xxo6-79" vertex="1">
          <mxGeometry x="770" y="-10" width="40" height="1240" as="geometry" />
        </mxCell>
        <mxCell id="Kza3IiyWU27NG2U3xxo6-99" value="权限控制(G3)" style="text;html=1;strokeColor=none;fillColor=none;align=center;verticalAlign=middle;whiteSpace=wrap;rounded=0;labelBackgroundColor=#FFFFFF;fontSize=13;fontColor=#000000;" parent="Kza3IiyWU27NG2U3xxo6-79" vertex="1">
          <mxGeometry x="790" y="595" width="130" height="30" as="geometry" />
        </mxCell>
        <mxCell id="Kza3IiyWU27NG2U3xxo6-100" value="菜单配置" style="text;html=1;strokeColor=none;fillColor=none;align=center;verticalAlign=middle;whiteSpace=wrap;rounded=0;labelBackgroundColor=#FFFFFF;fontSize=13;fontColor=#000000;" parent="Kza3IiyWU27NG2U3xxo6-79" vertex="1">
          <mxGeometry x="1084" y="596" width="90" height="35" as="geometry" />
        </mxCell>
        <mxCell id="Kza3IiyWU27NG2U3xxo6-101" value="dmp 包" style="rounded=0;whiteSpace=wrap;html=1;fontSize=13;strokeWidth=1;labelBackgroundColor=#FFFFFF;" parent="nkBP9FhSrCLW1QHYpYpv-4" vertex="1">
          <mxGeometry x="1727" y="500" width="693" height="290" as="geometry" />
        </mxCell>
        <mxCell id="Kza3IiyWU27NG2U3xxo6-102" value="gbc 包" style="rounded=0;whiteSpace=wrap;html=1;fontSize=13;strokeWidth=1;labelBackgroundColor=#FFFFFF;" parent="nkBP9FhSrCLW1QHYpYpv-4" vertex="1">
          <mxGeometry x="1730" y="840" width="688" height="170" as="geometry" />
        </mxCell>
        <mxCell id="Kza3IiyWU27NG2U3xxo6-103" value="" style="group;labelBackgroundColor=#FFFFFF;" parent="nkBP9FhSrCLW1QHYpYpv-4" vertex="1" connectable="0">
          <mxGeometry x="1730" y="1069" width="690" height="170" as="geometry" />
        </mxCell>
        <mxCell id="Kza3IiyWU27NG2U3xxo6-104" value="" style="rounded=0;whiteSpace=wrap;html=1;fontSize=13;strokeWidth=1;labelBackgroundColor=#FFFFFF;" parent="Kza3IiyWU27NG2U3xxo6-103" vertex="1">
          <mxGeometry width="690" height="170" as="geometry" />
        </mxCell>
        <mxCell id="Kza3IiyWU27NG2U3xxo6-105" value="控制台 包" style="rounded=1;whiteSpace=wrap;html=1;fontSize=13;strokeWidth=1;labelBackgroundColor=#FFFFFF;" parent="Kza3IiyWU27NG2U3xxo6-103" vertex="1">
          <mxGeometry x="100" y="71" width="120" height="60" as="geometry" />
        </mxCell>
        <mxCell id="Kza3IiyWU27NG2U3xxo6-106" value="管理中心 包" style="rounded=1;whiteSpace=wrap;html=1;fontSize=13;strokeWidth=1;labelBackgroundColor=#FFFFFF;" parent="Kza3IiyWU27NG2U3xxo6-103" vertex="1">
          <mxGeometry x="440" y="71" width="120" height="60" as="geometry" />
        </mxCell>
        <mxCell id="Kza3IiyWU27NG2U3xxo6-107" value="公共配置" style="text;html=1;strokeColor=none;fillColor=none;align=center;verticalAlign=middle;whiteSpace=wrap;rounded=0;fontSize=13;labelBackgroundColor=#FFFFFF;" parent="Kza3IiyWU27NG2U3xxo6-103" vertex="1">
          <mxGeometry x="289.5" y="11" width="81" height="40" as="geometry" />
        </mxCell>
        <mxCell id="Kza3IiyWU27NG2U3xxo6-108" value="login 编译" style="edgeStyle=none;rounded=0;orthogonalLoop=1;jettySize=auto;html=1;exitX=1;exitY=0.5;exitDx=0;exitDy=0;fontSize=13;endArrow=openThin;endFill=0;strokeWidth=3;labelBackgroundColor=#FFFFFF;" parent="nkBP9FhSrCLW1QHYpYpv-4" source="Kza3IiyWU27NG2U3xxo6-6" edge="1">
          <mxGeometry relative="1" as="geometry">
            <mxPoint x="790" y="210" as="targetPoint" />
          </mxGeometry>
        </mxCell>
        <mxCell id="Kza3IiyWU27NG2U3xxo6-109" style="edgeStyle=none;rounded=0;orthogonalLoop=1;jettySize=auto;html=1;exitX=1;exitY=0.5;exitDx=0;exitDy=0;fontSize=13;endArrow=openThin;endFill=0;strokeWidth=3;labelBackgroundColor=#FFFFFF;" parent="nkBP9FhSrCLW1QHYpYpv-4" source="Kza3IiyWU27NG2U3xxo6-7" edge="1">
          <mxGeometry relative="1" as="geometry">
            <mxPoint x="779.9999999999995" y="345" as="targetPoint" />
          </mxGeometry>
        </mxCell>
        <mxCell id="Kza3IiyWU27NG2U3xxo6-110" value="sp 编译" style="edgeLabel;html=1;align=center;verticalAlign=middle;resizable=0;points=[];fontSize=13;fontColor=#000000;" parent="Kza3IiyWU27NG2U3xxo6-109" vertex="1" connectable="0">
          <mxGeometry x="0.1469" y="-1" relative="1" as="geometry">
            <mxPoint as="offset" />
          </mxGeometry>
        </mxCell>
        <mxCell id="Kza3IiyWU27NG2U3xxo6-111" style="edgeStyle=none;rounded=0;orthogonalLoop=1;jettySize=auto;html=1;exitX=1;exitY=0.5;exitDx=0;exitDy=0;fontSize=13;endArrow=openThin;endFill=0;strokeWidth=3;labelBackgroundColor=#FFFFFF;" parent="nkBP9FhSrCLW1QHYpYpv-4" source="Kza3IiyWU27NG2U3xxo6-18" edge="1">
          <mxGeometry relative="1" as="geometry">
            <mxPoint x="779.9999999999995" y="645" as="targetPoint" />
          </mxGeometry>
        </mxCell>
        <mxCell id="Kza3IiyWU27NG2U3xxo6-112" value="dmp 编译" style="edgeLabel;html=1;align=center;verticalAlign=middle;resizable=0;points=[];fontSize=13;fontColor=#000000;" parent="Kza3IiyWU27NG2U3xxo6-111" vertex="1" connectable="0">
          <mxGeometry x="-0.1176" y="-1" relative="1" as="geometry">
            <mxPoint as="offset" />
          </mxGeometry>
        </mxCell>
        <mxCell id="Kza3IiyWU27NG2U3xxo6-113" value="gbc 编译" style="edgeStyle=none;rounded=0;orthogonalLoop=1;jettySize=auto;html=1;exitX=1;exitY=0.5;exitDx=0;exitDy=0;fontSize=13;endArrow=openThin;endFill=0;strokeWidth=3;labelBackgroundColor=#FFFFFF;" parent="nkBP9FhSrCLW1QHYpYpv-4" source="Kza3IiyWU27NG2U3xxo6-32" edge="1">
          <mxGeometry relative="1" as="geometry">
            <mxPoint x="779.9999999999995" y="925" as="targetPoint" />
          </mxGeometry>
        </mxCell>
        <mxCell id="Kza3IiyWU27NG2U3xxo6-114" value="系统管理解耦&amp;nbsp;编译" style="edgeStyle=none;rounded=0;orthogonalLoop=1;jettySize=auto;html=1;fontSize=13;endArrow=openThin;endFill=0;strokeWidth=3;labelBackgroundColor=#FFFFFF;" parent="nkBP9FhSrCLW1QHYpYpv-4" edge="1">
          <mxGeometry relative="1" as="geometry">
            <mxPoint x="779.9999999999995" y="1173.2352941176473" as="targetPoint" />
            <mxPoint x="520" y="1173" as="sourcePoint" />
          </mxGeometry>
        </mxCell>
        <mxCell id="Kza3IiyWU27NG2U3xxo6-115" value="&lt;div style=&quot;font-family: &amp;#34;consolas&amp;#34; , &amp;#34;courier new&amp;#34; , monospace ; line-height: 19px&quot;&gt;&lt;b&gt;&lt;font style=&quot;font-size: 20px&quot; color=&quot;#ff0000&quot;&gt;systemCode&lt;/font&gt;&lt;/b&gt;&lt;/div&gt;" style="html=1;shadow=0;dashed=0;align=center;verticalAlign=middle;shape=mxgraph.arrows2.arrow;dy=0.6;dx=40;notch=15;rounded=0;fontSize=13;strokeWidth=1;labelBackgroundColor=#FFFFFF;" parent="nkBP9FhSrCLW1QHYpYpv-4" vertex="1">
          <mxGeometry x="540" y="210" width="210" height="130" as="geometry" />
        </mxCell>
        <mxCell id="Kza3IiyWU27NG2U3xxo6-116" value="" style="strokeWidth=2;html=1;shape=mxgraph.flowchart.annotation_2;align=left;labelPosition=right;pointerEvents=1;rounded=0;labelBackgroundColor=#FFFFFF;fontSize=13;fontColor=#000000;rotation=-90;" parent="nkBP9FhSrCLW1QHYpYpv-4" vertex="1">
          <mxGeometry x="1080" y="940" width="60" height="700" as="geometry" />
        </mxCell>
        <mxCell id="Kza3IiyWU27NG2U3xxo6-117" value="项目专用(项目不区分环境)" style="text;html=1;strokeColor=none;fillColor=none;align=center;verticalAlign=middle;whiteSpace=wrap;rounded=0;labelBackgroundColor=#FFFFFF;fontSize=13;fontColor=#000000;" parent="nkBP9FhSrCLW1QHYpYpv-4" vertex="1">
          <mxGeometry x="1017.5" y="1330" width="185" height="30" as="geometry" />
        </mxCell>
        <mxCell id="Kza3IiyWU27NG2U3xxo6-118" value="&lt;div style=&quot;font-family: &amp;#34;consolas&amp;#34; , &amp;#34;courier new&amp;#34; , monospace ; font-size: 14px ; line-height: 19px&quot;&gt;&lt;div style=&quot;font-family: &amp;#34;consolas&amp;#34; , &amp;#34;courier new&amp;#34; , monospace ; line-height: 19px&quot;&gt;&lt;div style=&quot;font-family: &amp;#34;consolas&amp;#34; , &amp;#34;courier new&amp;#34; , monospace ; line-height: 19px&quot;&gt;&lt;div style=&quot;font-family: &amp;#34;consolas&amp;#34; , &amp;#34;courier new&amp;#34; , monospace ; line-height: 19px&quot;&gt;&lt;b&gt;&lt;font color=&quot;#ff0000&quot;&gt;&lt;span style=&quot;background-color: rgb(255 , 255 , 255)&quot;&gt;npm&amp;nbsp;run&amp;nbsp;sp&amp;nbsp;-- systemCode(&lt;/span&gt;对应项目的角色编码)&lt;/font&gt;&lt;/b&gt;&lt;/div&gt;&lt;/div&gt;&lt;/div&gt;&lt;/div&gt;" style="html=1;shadow=0;dashed=0;align=center;verticalAlign=middle;shape=mxgraph.arrows2.arrow;dy=0;dx=10;notch=0;rounded=0;fontSize=13;strokeWidth=1;labelBackgroundColor=#FFFFFF;fontStyle=0" parent="nkBP9FhSrCLW1QHYpYpv-4" vertex="1">
          <mxGeometry x="914.12" y="1360" width="391.75" height="30" as="geometry" />
        </mxCell>
        <mxCell id="Kza3IiyWU27NG2U3xxo6-119" value="输出(包)" style="html=1;shadow=0;dashed=0;align=center;verticalAlign=middle;shape=mxgraph.arrows2.arrow;dy=0.6;dx=40;notch=0;rounded=0;labelBackgroundColor=#FFFFFF;fontSize=13;fontColor=#000000;strokeWidth=1;" parent="nkBP9FhSrCLW1QHYpYpv-4" vertex="1">
          <mxGeometry x="1500" y="632.5" width="180" height="145" as="geometry" />
        </mxCell>
        <mxCell id="Kza3IiyWU27NG2U3xxo6-120" value="扩展(包)" style="rounded=0;whiteSpace=wrap;html=1;labelBackgroundColor=#FFFFFF;fontSize=13;fontColor=#000000;strokeWidth=2;dashed=1;dashPattern=1 4;" parent="nkBP9FhSrCLW1QHYpYpv-4" vertex="1">
          <mxGeometry x="1730" y="1270" width="690" height="110" as="geometry" />
        </mxCell>
        <mxCell id="Kza3IiyWU27NG2U3xxo6-121" value="扩展(系统)" style="rounded=0;whiteSpace=wrap;html=1;dashed=1;dashPattern=1 4;labelBackgroundColor=#FFFFFF;fontSize=13;fontColor=#000000;strokeWidth=2;" parent="nkBP9FhSrCLW1QHYpYpv-4" vertex="1">
          <mxGeometry x="38" y="1275" width="482" height="115" as="geometry" />
        </mxCell>
        <mxCell id="Kza3IiyWU27NG2U3xxo6-122" value="" style="rounded=0;whiteSpace=wrap;html=1;labelBackgroundColor=#FFFFFF;fontSize=13;fontColor=#000000;strokeWidth=1;strokeColor=#7F00FF;" parent="nkBP9FhSrCLW1QHYpYpv-4" vertex="1">
          <mxGeometry x="2875" y="120" width="365" height="1280" as="geometry" />
        </mxCell>
        <mxCell id="Kza3IiyWU27NG2U3xxo6-126" value="中控配置层" style="text;html=1;strokeColor=none;fillColor=none;align=center;verticalAlign=middle;whiteSpace=wrap;rounded=0;labelBackgroundColor=#FFFFFF;fontSize=13;fontColor=#000000;" parent="nkBP9FhSrCLW1QHYpYpv-4" vertex="1">
          <mxGeometry x="3002.5" y="130" width="110" height="30" as="geometry" />
        </mxCell>
        <mxCell id="Kza3IiyWU27NG2U3xxo6-127" value="" style="shape=curlyBracket;whiteSpace=wrap;html=1;rounded=1;labelBackgroundColor=#FFFFFF;fontSize=13;fontColor=#000000;strokeWidth=1;" parent="nkBP9FhSrCLW1QHYpYpv-4" vertex="1">
          <mxGeometry x="2860" y="180" width="60" height="1190" as="geometry" />
        </mxCell>
        <mxCell id="Kza3IiyWU27NG2U3xxo6-128" value="...." style="rounded=1;whiteSpace=wrap;html=1;labelBackgroundColor=#FFFFFF;fontSize=13;fontColor=#000000;strokeColor=#000000;strokeWidth=1;" parent="nkBP9FhSrCLW1QHYpYpv-4" vertex="1">
          <mxGeometry x="3130" y="210" width="100" height="30" as="geometry" />
        </mxCell>
        <mxCell id="Kza3IiyWU27NG2U3xxo6-125" style="edgeStyle=none;rounded=0;orthogonalLoop=1;jettySize=auto;html=1;exitX=0.5;exitY=1;exitDx=0;exitDy=0;entryX=0.5;entryY=0;entryDx=0;entryDy=0;labelBackgroundColor=#FFFFFF;fontSize=13;fontColor=#000000;endArrow=openThin;endFill=0;strokeWidth=3;" parent="nkBP9FhSrCLW1QHYpYpv-4" source="Kza3IiyWU27NG2U3xxo6-126" target="Kza3IiyWU27NG2U3xxo6-128" edge="1">
          <mxGeometry relative="1" as="geometry" />
        </mxCell>
        <mxCell id="Kza3IiyWU27NG2U3xxo6-129" value="&lt;b&gt;交易大数据系统&lt;/b&gt;" style="rounded=1;whiteSpace=wrap;html=1;labelBackgroundColor=#FFFFFF;fontSize=13;fontColor=#000000;strokeColor=#000000;strokeWidth=1;" parent="nkBP9FhSrCLW1QHYpYpv-4" vertex="1">
          <mxGeometry x="3016.5" y="210" width="100" height="30" as="geometry" />
        </mxCell>
        <mxCell id="Kza3IiyWU27NG2U3xxo6-123" style="edgeStyle=none;rounded=0;orthogonalLoop=1;jettySize=auto;html=1;exitX=0.5;exitY=1;exitDx=0;exitDy=0;entryX=0.411;entryY=0.069;entryDx=0;entryDy=0;entryPerimeter=0;labelBackgroundColor=#FFFFFF;fontSize=13;fontColor=#000000;endArrow=openThin;endFill=0;strokeWidth=3;" parent="nkBP9FhSrCLW1QHYpYpv-4" source="Kza3IiyWU27NG2U3xxo6-126" target="Kza3IiyWU27NG2U3xxo6-129" edge="1">
          <mxGeometry relative="1" as="geometry" />
        </mxCell>
        <mxCell id="Kza3IiyWU27NG2U3xxo6-130" value="互联互通" style="rounded=1;whiteSpace=wrap;html=1;labelBackgroundColor=#FFFFFF;fontSize=13;fontColor=#000000;strokeColor=#000000;strokeWidth=1;" parent="nkBP9FhSrCLW1QHYpYpv-4" vertex="1">
          <mxGeometry x="2902.5" y="210" width="100" height="30" as="geometry" />
        </mxCell>
        <mxCell id="Kza3IiyWU27NG2U3xxo6-124" style="edgeStyle=none;rounded=0;orthogonalLoop=1;jettySize=auto;html=1;exitX=0.5;exitY=1;exitDx=0;exitDy=0;entryX=0.5;entryY=0;entryDx=0;entryDy=0;labelBackgroundColor=#FFFFFF;fontSize=13;fontColor=#000000;endArrow=openThin;endFill=0;strokeWidth=3;" parent="nkBP9FhSrCLW1QHYpYpv-4" source="Kza3IiyWU27NG2U3xxo6-126" target="Kza3IiyWU27NG2U3xxo6-130" edge="1">
          <mxGeometry relative="1" as="geometry" />
        </mxCell>
        <mxCell id="Kza3IiyWU27NG2U3xxo6-131" value="环境" style="shape=singleArrow;direction=south;whiteSpace=wrap;html=1;rounded=0;labelBackgroundColor=#FFFFFF;fontSize=13;fontColor=#000000;strokeColor=#000000;strokeWidth=1;" parent="nkBP9FhSrCLW1QHYpYpv-4" vertex="1">
          <mxGeometry x="3009.75" y="270" width="120.25" height="200" as="geometry" />
        </mxCell>
        <mxCell id="Kza3IiyWU27NG2U3xxo6-132" value="" style="group" parent="nkBP9FhSrCLW1QHYpYpv-4" vertex="1" connectable="0">
          <mxGeometry x="2944.63" y="510" width="243.75" height="60.000000000000014" as="geometry" />
        </mxCell>
        <mxCell id="Kza3IiyWU27NG2U3xxo6-133" value="" style="group" parent="Kza3IiyWU27NG2U3xxo6-132" vertex="1" connectable="0">
          <mxGeometry y="-1.4210854715202004e-14" width="243.75" height="60.00000000000003" as="geometry" />
        </mxCell>
        <mxCell id="Kza3IiyWU27NG2U3xxo6-134" value="" style="html=1;shadow=0;dashed=0;align=center;verticalAlign=middle;shape=mxgraph.arrows2.arrow;dy=0;dx=10;notch=10;rounded=0;labelBackgroundColor=#FFFFFF;fontSize=13;fontColor=#000000;strokeColor=#000000;strokeWidth=1;rotation=-180;" parent="Kza3IiyWU27NG2U3xxo6-133" vertex="1">
          <mxGeometry y="1.4210854715202004e-14" width="243.75" height="60" as="geometry" />
        </mxCell>
        <mxCell id="Kza3IiyWU27NG2U3xxo6-135" value="dev" style="text;html=1;strokeColor=none;fillColor=none;align=center;verticalAlign=middle;whiteSpace=wrap;rounded=0;labelBackgroundColor=#FFFFFF;fontSize=13;fontColor=#000000;" parent="Kza3IiyWU27NG2U3xxo6-133" vertex="1">
          <mxGeometry x="101.88000000000011" y="20.000000000000014" width="40" height="20" as="geometry" />
        </mxCell>
        <mxCell id="Kza3IiyWU27NG2U3xxo6-136" value="" style="group" parent="nkBP9FhSrCLW1QHYpYpv-4" vertex="1" connectable="0">
          <mxGeometry x="2940" y="755" width="243.75" height="60.00000000000003" as="geometry" />
        </mxCell>
        <mxCell id="Kza3IiyWU27NG2U3xxo6-137" value="" style="html=1;shadow=0;dashed=0;align=center;verticalAlign=middle;shape=mxgraph.arrows2.arrow;dy=0;dx=10;notch=10;rounded=0;labelBackgroundColor=#FFFFFF;fontSize=13;fontColor=#000000;strokeColor=#000000;strokeWidth=1;rotation=-180;" parent="Kza3IiyWU27NG2U3xxo6-136" vertex="1">
          <mxGeometry y="1.4210854715202004e-14" width="243.75" height="60" as="geometry" />
        </mxCell>
        <mxCell id="Kza3IiyWU27NG2U3xxo6-138" value="release" style="text;html=1;strokeColor=none;fillColor=none;align=center;verticalAlign=middle;whiteSpace=wrap;rounded=0;labelBackgroundColor=#FFFFFF;fontSize=13;fontColor=#000000;" parent="Kza3IiyWU27NG2U3xxo6-136" vertex="1">
          <mxGeometry x="101.88000000000011" y="20.000000000000014" width="40" height="20" as="geometry" />
        </mxCell>
        <mxCell id="Kza3IiyWU27NG2U3xxo6-139" value="" style="group" parent="nkBP9FhSrCLW1QHYpYpv-4" vertex="1" connectable="0">
          <mxGeometry x="2944.63" y="1020" width="243.75" height="60.00000000000003" as="geometry" />
        </mxCell>
        <mxCell id="Kza3IiyWU27NG2U3xxo6-140" value="" style="html=1;shadow=0;dashed=0;align=center;verticalAlign=middle;shape=mxgraph.arrows2.arrow;dy=0;dx=10;notch=10;rounded=0;labelBackgroundColor=#FFFFFF;fontSize=13;fontColor=#000000;strokeColor=#000000;strokeWidth=1;rotation=-180;" parent="Kza3IiyWU27NG2U3xxo6-139" vertex="1">
          <mxGeometry y="1.4210854715202004e-14" width="243.75" height="60" as="geometry" />
        </mxCell>
        <mxCell id="Kza3IiyWU27NG2U3xxo6-141" value="master" style="text;html=1;strokeColor=none;fillColor=none;align=center;verticalAlign=middle;whiteSpace=wrap;rounded=0;labelBackgroundColor=#FFFFFF;fontSize=13;fontColor=#000000;" parent="Kza3IiyWU27NG2U3xxo6-139" vertex="1">
          <mxGeometry x="101.88000000000011" y="20.000000000000014" width="40" height="20" as="geometry" />
        </mxCell>
        <mxCell id="Kza3IiyWU27NG2U3xxo6-142" value="同步配置" style="html=1;shadow=0;dashed=0;align=center;verticalAlign=middle;shape=mxgraph.arrows2.arrow;dy=0.6;dx=40;notch=15;rounded=0;labelBackgroundColor=#FFFFFF;fontSize=13;fontColor=#000000;strokeColor=#000000;strokeWidth=1;rotation=90;horizontal=0;" parent="nkBP9FhSrCLW1QHYpYpv-4" vertex="1">
          <mxGeometry x="2986.5" y="900" width="160" height="30" as="geometry" />
        </mxCell>
        <mxCell id="Kza3IiyWU27NG2U3xxo6-143" value="同步配置" style="html=1;shadow=0;dashed=0;align=center;verticalAlign=middle;shape=mxgraph.arrows2.arrow;dy=0.6;dx=40;notch=15;rounded=0;labelBackgroundColor=#FFFFFF;fontSize=13;fontColor=#000000;strokeColor=#000000;strokeWidth=1;rotation=90;horizontal=0;" parent="nkBP9FhSrCLW1QHYpYpv-4" vertex="1">
          <mxGeometry x="2986.51" y="650" width="160" height="30" as="geometry" />
        </mxCell>
        <mxCell id="Kza3IiyWU27NG2U3xxo6-144" value="发布" style="html=1;shadow=0;dashed=0;align=center;verticalAlign=middle;shape=mxgraph.arrows2.arrow;dy=0;dx=30;notch=30;rounded=0;labelBackgroundColor=#FFFFFF;fontSize=13;fontColor=#000000;strokeColor=#000000;strokeWidth=1;rotation=90;horizontal=0;" parent="nkBP9FhSrCLW1QHYpYpv-4" vertex="1">
          <mxGeometry x="2991.62" y="1130" width="156.51" height="60" as="geometry" />
        </mxCell>
        <mxCell id="Kza3IiyWU27NG2U3xxo6-145" value="" style="strokeWidth=2;html=1;shape=mxgraph.flowchart.annotation_2;align=left;labelPosition=right;pointerEvents=1;rounded=0;labelBackgroundColor=#FFFFFF;fontSize=13;fontColor=#000000;rotation=-90;" parent="nkBP9FhSrCLW1QHYpYpv-4" vertex="1">
          <mxGeometry x="2665" y="675" width="50" height="270" as="geometry" />
        </mxCell>
        <mxCell id="Kza3IiyWU27NG2U3xxo6-146" value="GST 部署" style="text;html=1;strokeColor=none;fillColor=none;align=center;verticalAlign=middle;whiteSpace=wrap;rounded=0;labelBackgroundColor=#FFFFFF;fontSize=13;fontColor=#000000;" parent="nkBP9FhSrCLW1QHYpYpv-4" vertex="1">
          <mxGeometry x="2636.25" y="840" width="107.5" height="30" as="geometry" />
        </mxCell>
      </root>
    </mxGraphModel>
  </diagram>
</mxfile>
